<?xml version="1.0" standalone="no"?>
<!DOCTYPE svg PUBLIC "-//W3C//DTD SVG 20010904//EN"
 "http://www.w3.org/TR/2001/REC-SVG-20010904/DTD/svg10.dtd">
<svg version="1.0" xmlns="http://www.w3.org/2000/svg"
 width="2481.000000pt" height="1755.000000pt" viewBox="0 0 2481.000000 1755.000000"
 preserveAspectRatio="xMidYMid meet">

<g transform="translate(0.000000,1755.000000) scale(0.100000,-0.100000)"
fill="#000000" stroke="none">
<path d="M10920 11535 c-491 -78 -790 -372 -892 -877 -19 -97 -23 -144 -23
-333 0 -188 4 -236 23 -331 91 -456 339 -730 757 -839 274 -70 630 -56 892 36
112 40 323 145 323 162 0 11 -40 110 -166 409 l-45 106 -66 -49 c-83 -64 -182
-113 -280 -141 -63 -18 -104 -22 -213 -23 -201 0 -316 37 -427 138 -133 122
-193 291 -193 544 1 348 148 574 421 649 98 27 300 25 403 -4 98 -28 200 -79
289 -143 59 -43 68 -47 74 -32 4 10 53 128 109 263 l101 245 -66 39 c-154 90
-333 154 -514 180 -128 19 -388 19 -507 1z"/>
<path d="M3565 11518 c-71 -13 -182 -69 -240 -120 -63 -55 -120 -144 -145
-226 -19 -61 -20 -94 -20 -630 0 -554 0 -567 21 -609 59 -122 231 -156 332
-64 79 71 77 49 77 647 l0 531 23 21 23 22 525 0 c311 0 538 4 558 10 98 28
167 125 159 224 -6 73 -46 138 -106 173 l-47 28 -555 2 c-321 0 -576 -3 -605
-9z"/>
<path d="M7101 11515 c-81 -25 -151 -121 -151 -206 0 -46 30 -113 68 -152 65
-66 70 -67 659 -67 510 0 524 -1 543 -20 19 -19 20 -33 20 -541 0 -362 3 -533
11 -560 27 -89 114 -152 209 -152 87 0 153 41 196 123 18 33 19 70 22 560 2
336 -1 550 -8 595 -31 206 -193 377 -397 420 -97 21 -1106 20 -1172 0z"/>
<path d="M19165 11488 c-8 -18 -48 -112 -88 -208 l-73 -175 -152 -3 -152 -3 0
-224 0 -225 139 0 140 0 3 -557 3 -558 27 -78 c51 -142 115 -217 241 -278 116
-56 228 -73 431 -66 142 6 324 32 342 50 5 5 -26 437 -31 445 -1 1 -37 -7 -80
-19 -107 -29 -245 -25 -293 9 -69 49 -67 34 -70 570 l-3 482 236 0 235 0 0
225 0 225 -235 0 -235 0 0 210 0 210 -185 0 -185 0 -15 -32z"/>
<path d="M15243 11129 c-529 -62 -806 -446 -780 -1079 13 -314 89 -515 256
-680 162 -161 368 -237 691 -255 282 -16 552 45 769 175 47 28 87 52 89 55 2
2 -44 98 -104 214 l-108 209 -55 -49 c-71 -64 -214 -135 -311 -155 -101 -21
-280 -14 -370 15 -144 46 -251 174 -276 331 l-7 40 639 2 639 3 -1 175 c-2
192 -17 306 -60 441 -74 236 -225 408 -432 492 -160 66 -375 90 -579 66z m336
-454 c101 -56 156 -154 179 -323 l9 -62 -364 0 -363 0 0 28 c1 77 58 231 107
287 69 78 146 106 278 102 89 -3 107 -7 154 -32z"/>
<path d="M17582 11111 c-166 -42 -295 -137 -378 -278 l-39 -66 -9 34 c-6 19
-28 95 -51 169 l-40 135 -208 3 -207 2 0 -985 0 -985 279 0 280 0 3 593 c4
563 5 595 24 659 51 164 151 249 310 264 87 8 184 -15 234 -55 53 -43 89 -121
100 -221 5 -47 10 -345 10 -662 l0 -578 280 0 281 0 -3 748 c-4 830 -1 790
-73 938 -64 132 -160 214 -315 268 -78 27 -97 30 -245 33 -130 2 -174 -1 -233
-16z"/>
<path d="M20825 11114 c-114 -17 -248 -55 -348 -98 -79 -35 -205 -103 -244
-134 l-22 -17 111 -205 c61 -113 112 -207 114 -209 3 -3 19 9 37 26 89 85 236
161 366 189 36 7 107 14 156 14 249 0 392 -99 411 -287 l6 -58 -208 -23 c-448
-48 -681 -121 -825 -259 -104 -99 -149 -217 -149 -393 0 -173 41 -290 135
-389 63 -67 119 -100 225 -133 65 -20 95 -23 225 -23 171 1 234 14 354 73 94
46 194 143 241 235 20 38 37 61 41 54 4 -7 19 -55 33 -107 15 -52 36 -125 47
-162 l20 -68 209 0 210 0 0 643 c0 514 -3 661 -15 740 -53 353 -280 546 -700
596 -120 15 -319 12 -430 -5z m585 -1177 c0 -45 -7 -110 -15 -142 -42 -162
-190 -268 -375 -268 -131 0 -197 45 -220 148 -30 133 46 232 220 285 71 22
280 57 348 59 l42 1 0 -83z"/>
<path d="M12283 10378 c4 -823 2 -803 78 -956 72 -146 182 -234 354 -284 106
-30 353 -33 455 -4 157 43 296 148 370 279 18 32 34 56 37 53 2 -2 26 -75 52
-163 l47 -158 212 -3 212 -2 -2 982 -3 983 -282 3 -283 2 0 -572 c0 -621 -3
-658 -55 -764 -32 -65 -91 -125 -153 -155 -58 -28 -208 -38 -277 -19 -75 21
-136 84 -169 174 -7 21 -12 245 -16 681 l-5 650 -288 3 -288 2 4 -732z"/>
<path d="M4715 10240 c-147 -19 -312 -81 -445 -169 -133 -87 -296 -277 -322
-375 -33 -122 72 -257 201 -258 92 0 132 25 215 135 109 146 255 226 436 242
100 9 135 21 181 62 104 95 87 266 -34 337 -51 30 -128 39 -232 26z"/>
<path d="M7043 10239 c-349 -45 -653 -268 -800 -585 -19 -42 -47 -120 -61
-173 l-27 -96 -5 -852 c-4 -679 -8 -855 -18 -865 -10 -10 -88 -14 -325 -18
-310 -5 -312 -5 -357 -30 -87 -49 -130 -147 -106 -241 17 -63 55 -112 109
-138 41 -20 58 -21 373 -21 275 0 340 3 385 16 179 53 321 204 358 382 7 36
11 311 11 866 0 777 1 816 20 890 36 143 122 265 240 345 85 56 158 81 286 96
124 14 159 28 202 80 71 87 68 197 -10 281 -62 67 -128 83 -275 63z"/>
<path d="M4781 9639 c-73 -14 -168 -65 -220 -117 -57 -57 -109 -152 -117 -216
-6 -38 -3 -45 21 -64 27 -22 34 -22 395 -22 361 0 368 0 395 22 24 19 27 26
21 64 -14 108 -113 237 -223 292 -90 46 -179 59 -272 41z"/>
<path d="M7079 9632 c-156 -41 -291 -185 -306 -327 -9 -88 -22 -85 415 -85
l373 0 26 26 c19 19 24 32 20 52 -34 168 -178 311 -346 342 -72 13 -104 12
-182 -8z"/>
<path d="M10090 7200 l0 -1192 573 5 c602 6 634 8 813 56 43 12 129 46 189 75
288 141 464 394 531 761 25 138 25 440 0 580 -88 494 -375 787 -861 881 -77
15 -172 18 -667 21 l-578 4 0 -1191z m1149 646 c178 -50 292 -172 347 -371 12
-42 18 -115 21 -240 4 -153 2 -194 -15 -277 -48 -233 -169 -372 -367 -423 -45
-11 -117 -15 -307 -15 l-248 0 0 676 0 677 258 -6 c187 -4 272 -9 311 -21z"/>
<path d="M12620 7200 l0 -1190 281 0 281 0 -6 693 c-3 380 -9 725 -13 765 -5
39 -6 72 -3 72 3 0 225 -344 494 -765 l488 -765 279 0 279 0 0 1190 0 1190
-281 0 -281 0 5 -722 c3 -398 8 -741 12 -763 6 -39 6 -40 -12 -19 -10 11 -229
354 -488 762 l-470 741 -282 1 -283 0 0 -1190z"/>
<path d="M15180 7200 l0 -1190 290 0 290 0 0 1190 0 1190 -290 0 -290 0 0
-1190z"/>
<path d="M3466 7679 c-137 -32 -201 -167 -146 -306 170 -428 514 -831 914
-1072 353 -214 742 -321 1163 -321 160 0 167 1 214 26 127 70 152 246 47 340
-57 52 -81 58 -298 65 -161 5 -232 12 -331 33 -433 89 -798 318 -1076 676 -76
98 -126 183 -202 341 -38 79 -80 154 -93 165 -52 48 -126 68 -192 53z"/>
<path d="M8385 7675 c-51 -18 -120 -91 -134 -141 -7 -26 -11 -217 -11 -561 l0
-522 -26 -20 c-26 -21 -36 -21 -558 -21 l-532 0 -53 -26 c-158 -79 -156 -302
2 -387 42 -22 42 -22 607 -22 557 0 566 0 636 22 85 27 178 86 235 151 53 60
105 170 118 253 15 90 15 1066 0 1124 -16 62 -77 129 -136 149 -57 19 -95 20
-148 1z"/>
</g>
</svg>
